<?xml version="1.0" encoding="UTF-8" standalone="no"?>
<!-- Generator: Adobe Illustrator 15.0.0, SVG Export Plug-In . SVG Version: 6.00 Build 0)  -->

<svg
   xmlns:dc="http://purl.org/dc/elements/1.1/"
   xmlns:cc="http://creativecommons.org/ns#"
   xmlns:rdf="http://www.w3.org/1999/02/22-rdf-syntax-ns#"
   xmlns:svg="http://www.w3.org/2000/svg"
   xmlns="http://www.w3.org/2000/svg"
   xmlns:sodipodi="http://sodipodi.sourceforge.net/DTD/sodipodi-0.dtd"
   xmlns:inkscape="http://www.inkscape.org/namespaces/inkscape"
   version="1.1"
   id="レイヤー_1"
   x="0px"
   y="0px"
   width="401.98px"
   height="559.472px"
   viewBox="0 0 401.98 559.472"
   enable-background="new 0 0 401.98 559.472"
   xml:space="preserve"
   inkscape:version="0.91 r13725"
   sodipodi:docname="gopher.svg"><metadata
     id="metadata61"><rdf:RDF><cc:Work
         rdf:about=""><dc:format>image/svg+xml</dc:format><dc:type
           rdf:resource="http://purl.org/dc/dcmitype/StillImage" /></cc:Work></rdf:RDF></metadata><defs
     id="defs59" /><sodipodi:namedview
     pagecolor="#ffffff"
     bordercolor="#666666"
     borderopacity="1"
     objecttolerance="10"
     gridtolerance="10"
     guidetolerance="10"
     inkscape:pageopacity="0"
     inkscape:pageshadow="2"
     inkscape:window-width="2560"
     inkscape:window-height="1416"
     id="namedview57"
     showgrid="false"
     inkscape:zoom="1.193105"
     inkscape:cx="-402.42095"
     inkscape:cy="327.12028"
     inkscape:window-x="2880"
     inkscape:window-y="24"
     inkscape:window-maximized="1"
     inkscape:current-layer="レイヤー_1" /><path
     d="m 22.354598,247.02668 c 0.579331,11.66983 12.510933,6.27018 17.915214,2.62203 5.129788,-3.4637 6.629688,-0.58458 7.080102,-7.42008 0.294959,-4.49279 0.824997,-8.98559 0.564159,-13.49617 -7.757239,-0.6868 -16.194665,1.11803 -22.554393,5.63231 -3.275779,2.32566 -9.417882,9.7487 -3.005082,12.66191"
     id="path3"
     inkscape:connector-curvature="0"
     style="clip-rule:evenodd;fill:#f6d2a2;fill-rule:evenodd;stroke:#000000;stroke-width:2.24861813;stroke-linecap:round" /><path
     d="m 22.354598,247.02668 c 1.736481,-0.63126 3.576838,-1.0795 4.755201,-2.6139"
     id="path5"
     inkscape:connector-curvature="0"
     style="clip-rule:evenodd;fill:#c6b198;fill-rule:evenodd;stroke:#000000;stroke-width:2.24861813;stroke-linecap:round" /><path
     d="M 49.928078,108.00497 C 4.2058375,95.442337 38.204256,38.609705 74.920358,61.985712 l -24.99228,46.019258 z"
     id="path7"
     inkscape:connector-curvature="0"
     style="clip-rule:evenodd;fill:#6ad7e5;fill-rule:evenodd;stroke:#000000;stroke-width:2.24861813;stroke-linecap:round" /><path
     d="m 253.07078,57.721109 c 36.1906,-24.837042 68.89461,31.19986 26.83415,45.299121 L 253.07078,57.721109 Z"
     id="path9"
     inkscape:connector-curvature="0"
     style="clip-rule:evenodd;fill:#6ad7e5;fill-rule:evenodd;stroke:#000000;stroke-width:2.24861813;stroke-linecap:round" /><path
     d="m 260.85532,390.64932 c 9.19265,5.55747 25.99548,22.36173 12.20533,30.5101 -13.25025,11.8536 -20.66627,-13.01086 -32.29607,-16.45605 5.00848,-6.64583 11.35681,-12.70561 20.09074,-14.05405 z"
     id="path11"
     inkscape:connector-curvature="0"
     style="clip-rule:evenodd;fill:#f6d2a2;fill-rule:evenodd;stroke:#000000;stroke-width:2.24861813;stroke-linecap:round" /><path
     d="m 273.06065,421.15868 c -2.04434,-3.97195 -2.73058,-8.60772 -6.14361,-11.80913"
     id="path13"
     inkscape:connector-curvature="0"
     style="clip-rule:evenodd;fill:none;fill-rule:evenodd;stroke:#000000;stroke-width:2.24861813;stroke-linecap:round" /><path
     d="m 96.624708,409.63997 c -10.789618,1.63145 -16.862711,11.14233 -25.857464,15.97223 -8.476109,4.93807 -11.718525,-1.58108 -12.482118,-2.90432 -1.328526,-0.59197 -1.21704,0.55125 -3.267451,-1.46622 -7.857337,-12.1166 8.187191,-20.97328 16.541967,-26.99232 11.636629,-2.29826 18.929022,7.55862 25.065066,15.39063 z"
     id="path15"
     inkscape:connector-curvature="0"
     style="clip-rule:evenodd;fill:#f6d2a2;fill-rule:evenodd;stroke:#000000;stroke-width:2.24861813;stroke-linecap:round" /><path
     d="m 58.285887,422.70715 c 0.411,-4.618 4.158419,-7.71049 5.943423,-11.61503"
     id="path17"
     inkscape:connector-curvature="0"
     style="clip-rule:evenodd;fill:none;fill-rule:evenodd;stroke:#000000;stroke-width:2.24861813;stroke-linecap:round" /><path
     d="M 51.835915,92.308351 C 45.803769,89.190663 41.378426,84.95644 45.068242,78.139466 c 3.416067,-6.31096 9.762142,-5.625631 15.795048,-2.507943 l -9.027375,16.676828 z"
     id="path19"
     inkscape:connector-curvature="0"
     style="clip-rule:evenodd;fill-rule:evenodd" /><path
     d="m 270.37556,86.38119 c 6.03214,-3.117688 10.4575,-7.351911 6.76768,-14.168901 -3.41605,-6.310944 -9.76213,-5.625615 -15.79504,-2.507927 l 9.02736,16.676828 z"
     id="path21"
     inkscape:connector-curvature="0"
     style="clip-rule:evenodd;fill-rule:evenodd" /><path
     d="m 372.33536,189.97978 c 18.31308,-9.31138 18.58272,10.39895 -4.0221,54.0385 -0.4366,1.58527 -10.76642,4.87735 -12.69724,4.19197 -1.16834,-0.41474 -1.93508,-0.36492 -3.75567,-0.50288 -17.96736,-1.36152 -61.34997,-0.1519 -61.72206,-5.79891 -0.63925,-3.99496 -1.68572,-13.63206 -1.42487,-18.14263 2.23284,-0.19768 9.73314,0.64695 19.45679,0.43142 1.41152,-0.0314 0.76168,1.24432 0.14969,-0.0143 -19.54993,-40.18916 56.1397,-34.2539 29.92952,1.87386 -0.70545,0.97239 2.44582,0.23675 3.6616,0.35035 3.33317,0.31146 8.28294,1.33339 11.35499,1.65867 2.89532,0.30657 9.86421,-27.67365 8.61736,-29.80337 -3.95132,-6.74919 5.46955,-11.60397 6.78795,-11.5514 1.34474,0.53017 3.09396,1.1515 4.78915,3.64881"
     id="path23"
     inkscape:connector-curvature="0"
     style="clip-rule:evenodd;fill:#f6d2a2;fill-rule:evenodd;stroke:#000000;stroke-width:2.24861813;stroke-linecap:round"
     sodipodi:nodetypes="ccssccsssssscc" /><path
     d="m 373.53168,189.66805 c 0,0 0.33519,6.15821 -1.93826,8.84809"
     id="path25"
     inkscape:connector-curvature="0"
     style="clip-rule:evenodd;fill:#c6b198;fill-rule:evenodd;stroke:#000000;stroke-width:2.24861813;stroke-linecap:round"
     sodipodi:nodetypes="cc" /><g
     id="g27"
     transform="matrix(0.75828371,0,0,0.74089584,14.29102,24.392663)"><path
       d="m 195.512,13.124 c 60.365,0 116.953,8.633 146.452,66.629 26.478,65.006 17.062,135.104 21.1,203.806 3.468,58.992 11.157,127.145 -16.21,181.812 -28.79,57.514 -100.73,71.982 -160,69.863 C 140.299,533.568 84.06,518.38 57.785,475.845 26.959,425.945 41.553,351.747 43.792,296.223 46.444,230.452 25.977,164.481 47.584,100.122 69.999,33.359 130.451,18.271 195.512,13.124"
       id="path29"
       inkscape:connector-curvature="0"
       style="clip-rule:evenodd;fill:#6ad7e5;fill-rule:evenodd;stroke:#000000;stroke-width:3;stroke-linecap:round" /></g><path
     d="m 170.62561,94.155404 c 8.2183,46.678666 86.30938,34.336826 75.09285,-12.741189 -10.05787,-42.216242 -77.82418,-30.530829 -75.09285,12.741189"
     id="path31"
     inkscape:connector-curvature="0"
     style="clip-rule:evenodd;fill:#ffffff;fill-rule:evenodd;stroke:#000000;stroke-width:2.17973542;stroke-linecap:round" /><path
     d="M 77.306676,101.70513 C 87.958286,142.34327 154.54849,131.93886 152.03857,91.174789 149.03122,42.353453 67.122926,51.773943 77.306676,101.70513"
     id="path33"
     inkscape:connector-curvature="0"
     style="clip-rule:evenodd;fill:#ffffff;fill-rule:evenodd;stroke:#000000;stroke-width:2.11475039;stroke-linecap:round" /><path
     d="m 180.04729,150.16862 c 0.0349,6.06867 1.41117,12.88195 0.23659,19.33812 -1.58557,2.928 -4.69605,3.23771 -7.37736,4.42092 -3.708,-0.56827 -6.82606,-2.94727 -8.31305,-6.33613 -0.95164,-7.36896 0.35489,-14.5038 0.59525,-21.87571 l 14.85857,4.4528 z"
     id="path35"
     inkscape:connector-curvature="0"
     style="clip-rule:evenodd;fill:#ffffff;fill-rule:evenodd;stroke:#000000;stroke-width:2.24861813;stroke-linecap:round" /><g
     id="g37"
     transform="matrix(0.75828371,0,0,0.74089584,47.342385,23.728882)"><ellipse
       cx="107.324"
       cy="95.403999"
       rx="14.829"
       ry="16.062"
       id="ellipse39"
       style="clip-rule:evenodd;fill-rule:evenodd" /><ellipse
       cx="114.069"
       cy="99.028999"
       rx="3.4960001"
       ry="4.0819998"
       id="ellipse41"
       style="clip-rule:evenodd;fill:#ffffff;fill-rule:evenodd" /></g><g
     id="g43"
     transform="matrix(0.75828371,0,0,0.74089584,49.408102,23.728882)"><ellipse
       cx="231.571"
       cy="91.403999"
       rx="14.582"
       ry="16.062"
       id="ellipse45"
       style="clip-rule:evenodd;fill-rule:evenodd" /><ellipse
       cx="238.20399"
       cy="95.028999"
       rx="3.438"
       ry="4.0819998"
       id="ellipse47"
       style="clip-rule:evenodd;fill:#ffffff;fill-rule:evenodd" /></g><path
     d="m 147.9135,149.50774 c -4.90609,11.61723 2.7359,34.84803 16.04757,17.71333 -0.95166,-7.36894 0.35486,-14.50378 0.59525,-21.87569 l -16.64282,4.16236 z"
     id="path49"
     inkscape:connector-curvature="0"
     style="clip-rule:evenodd;fill:#ffffff;fill-rule:evenodd;stroke:#000000;stroke-width:2.24861813;stroke-linecap:round" /><g
     id="g51"
     transform="matrix(0.75828371,0,0,0.74089584,14.29102,24.392663)"><path
       d="m 178.431,138.673 c -12.059,1.028 -21.916,15.366 -15.646,26.709 8.303,15.024 26.836,-1.329 38.379,0.203 13.285,0.272 24.17,14.047 34.84,2.49 11.867,-12.854 -5.109,-25.373 -18.377,-30.97 l -39.196,1.568 z"
       id="path53"
       inkscape:connector-curvature="0"
       style="clip-rule:evenodd;fill:#f6d2a2;fill-rule:evenodd;stroke:#231f20;stroke-width:3;stroke-linecap:round" /><path
       d="m 176.913,138.045 c -0.893,-20.891 38.938,-23.503 43.642,-6.016 4.692,17.446 -41.681,21.498 -43.642,6.016 -1.565,-12.363 0,0 0,0 z"
       id="path55"
       inkscape:connector-curvature="0"
       style="clip-rule:evenodd;fill-rule:evenodd" /></g></svg>